<svg width="93" height="93" viewBox="0 0 93 93" xmlns="http://www.w3.org/2000/svg"><g fill="none" fill-rule="evenodd"><circle fill="#D6EAFF" cx="46.5" cy="46.5" r="46.5"/><path d="M75.364 69.249L56.61 60.652v-14.68H36.39v14.68L17.636 69.25c-3.045 1.395-5.505 5.23-5.505 8.57C20.635 87.145 32.883 93 46.5 93s25.865-5.854 34.37-15.182c-.001-3.335-2.466-7.176-5.506-8.57z" fill="#1D5DA3"/><path d="M46.5 56.609c-8.933 0-16.174-7.242-16.174-16.174V34.37c0-8.933 7.241-16.174 16.174-16.174s16.174 7.241 16.174 16.174v6.065c0 8.932-7.241 16.174-16.174 16.174z" fill="#1A71D1"/></g></svg>