<svg xmlns="http://www.w3.org/2000/svg" viewBox="0 0 1024 630"><style><![CDATA[.A{fill:#218BE7}.B{opacity:0.5;fill:#BBC1C8;enable-background:new }]]></style><circle class="A" cx="71.6" cy="59.3" r="9.3"/><circle class="B" cx="95.4" cy="59.3" r="9.3"/><circle class="B" cx="119.2" cy="59.3" r="9.3"/><circle class="B" cx="143" cy="59.3" r="9.3"/><circle class="A" cx="71.6" cy="83.1" r="9.3"/><circle class="B" cx="95.4" cy="83.1" r="9.3"/><circle class="B" cx="119.2" cy="83.1" r="9.3"/><circle class="B" cx="143" cy="83.1" r="9.3"/><circle class="B" cx="166.8" cy="83.1" r="9.3"/><circle class="B" cx="190.6" cy="83.1" r="9.3"/><circle class="B" cx="214.4" cy="83.1" r="9.3"/><circle class="B" cx="238.2" cy="83.1" r="9.3"/><circle class="B" cx="262" cy="83.1" r="9.3"/><circle class="B" cx="285.8" cy="83.1" r="9.3"/><circle class="B" cx="309.6" cy="83.1" r="9.3"/><circle class="B" cx="333.4" cy="83.1" r="9.3"/><circle class="B" cx="357.2" cy="83.1" r="9.3"/><circle class="B" cx="381" cy="83.1" r="9.3"/><circle class="B" cx="404.8" cy="83.1" r="9.3"/><circle class="B" cx="428.6" cy="83.1" r="9.3"/><circle class="B" cx="452.4" cy="83.1" r="9.3"/><circle class="B" cx="476.2" cy="83.1" r="9.3"/><circle class="B" cx="500" cy="83.1" r="9.3"/><circle class="B" cx="523.8" cy="83.1" r="9.3"/><circle class="A" cx="71.6" cy="106.9" r="9.3"/><circle class="B" cx="95.4" cy="106.9" r="9.3"/><circle class="B" cx="119.2" cy="106.9" r="9.3"/><circle class="B" cx="143" cy="106.9" r="9.3"/><circle class="B" cx="166.8" cy="106.9" r="9.3"/><circle class="B" cx="190.6" cy="106.9" r="9.3"/><circle class="B" cx="214.4" cy="106.9" r="9.3"/><circle class="B" cx="238.2" cy="106.9" r="9.3"/><circle class="B" cx="262" cy="106.9" r="9.3"/><circle class="B" cx="285.8" cy="106.9" r="9.3"/><circle class="B" cx="309.6" cy="106.9" r="9.3"/><circle class="B" cx="333.4" cy="106.9" r="9.3"/><circle class="B" cx="357.2" cy="106.9" r="9.3"/><circle class="B" cx="381" cy="106.9" r="9.3"/><circle class="B" cx="404.8" cy="106.9" r="9.3"/><circle class="B" cx="428.6" cy="106.9" r="9.3"/><circle class="B" cx="452.4" cy="106.9" r="9.3"/><circle class="B" cx="476.2" cy="106.9" r="9.3"/><circle class="B" cx="500" cy="106.9" r="9.3"/><circle class="B" cx="523.8" cy="106.9" r="9.3"/><circle class="B" cx="547.6" cy="106.9" r="9.3"/><circle class="B" cx="571.4" cy="106.9" r="9.3"/><circle class="A" cx="71.6" cy="130.7" r="9.3"/><circle class="B" cx="95.4" cy="130.7" r="9.3"/><circle class="B" cx="119.2" cy="130.7" r="9.3"/><circle class="B" cx="143" cy="130.7" r="9.3"/><circle class="B" cx="166.8" cy="130.7" r="9.3"/><circle class="B" cx="190.6" cy="130.7" r="9.3"/><circle class="B" cx="214.4" cy="130.7" r="9.3"/><circle class="B" cx="238.2" cy="130.7" r="9.3"/><circle class="B" cx="262" cy="130.7" r="9.3"/><circle class="B" cx="285.8" cy="130.7" r="9.3"/><circle class="B" cx="309.6" cy="130.7" r="9.3"/><circle class="B" cx="333.4" cy="130.7" r="9.3"/><circle class="B" cx="357.2" cy="130.7" r="9.3"/><circle class="B" cx="381" cy="130.7" r="9.3"/><circle class="B" cx="404.8" cy="130.7" r="9.3"/><circle class="B" cx="428.6" cy="130.7" r="9.3"/><circle class="B" cx="452.4" cy="130.7" r="9.3"/><circle class="B" cx="476.2" cy="130.7" r="9.3"/><circle class="B" cx="500" cy="130.7" r="9.3"/><circle class="B" cx="523.8" cy="130.7" r="9.3"/><circle class="B" cx="547.6" cy="130.7" r="9.3"/><circle class="B" cx="571.4" cy="130.7" r="9.3"/><circle class="A" cx="47.8" cy="130.7" r="9.3"/><circle class="B" cx="595.2" cy="130.7" r="9.3"/><circle class="B" cx="619" cy="130.7" r="9.3"/><circle class="B" cx="642.8" cy="130.7" r="9.3"/><circle class="B" cx="666.6" cy="130.7" r="9.3"/><circle class="B" cx="71.6" cy="155.2" r="9.3"/><circle class="B" cx="95.4" cy="155.2" r="9.3"/><circle class="B" cx="119.2" cy="155.2" r="9.3"/><circle class="B" cx="143" cy="155.2" r="9.3"/><circle class="B" cx="166.8" cy="155.2" r="9.3"/><circle class="B" cx="190.6" cy="155.2" r="9.3"/><circle class="B" cx="214.4" cy="155.2" r="9.3"/><circle class="B" cx="238.2" cy="155.2" r="9.3"/><circle class="B" cx="262" cy="155.2" r="9.3"/><circle class="B" cx="285.8" cy="155.2" r="9.3"/><circle class="B" cx="309.6" cy="155.2" r="9.3"/><circle class="B" cx="333.4" cy="155.2" r="9.3"/><circle class="B" cx="357.2" cy="155.2" r="9.3"/><circle class="B" cx="381" cy="155.2" r="9.3"/><circle class="B" cx="404.8" cy="155.2" r="9.3"/><circle class="B" cx="428.6" cy="155.2" r="9.3"/><circle class="B" cx="452.4" cy="155.2" r="9.3"/><circle class="B" cx="476.2" cy="155.2" r="9.3"/><circle class="B" cx="500" cy="155.2" r="9.3"/><circle class="B" cx="523.8" cy="155.2" r="9.3"/><circle class="B" cx="547.6" cy="155.2" r="9.3"/><circle class="B" cx="571.4" cy="155.2" r="9.3"/><circle class="B" cx="47.8" cy="155.2" r="9.3"/><circle class="B" cx="595.2" cy="155.2" r="9.3"/><circle class="B" cx="619" cy="155.2" r="9.3"/><circle class="B" cx="642.8" cy="155.2" r="9.3"/><circle class="A" cx="23.3" cy="155.2" r="9.3"/><circle class="B" cx="71.6" cy="179.6" r="9.3"/><circle class="B" cx="95.4" cy="179.6" r="9.3"/><circle class="B" cx="119.2" cy="179.6" r="9.3"/><circle class="B" cx="143" cy="179.6" r="9.3"/><circle class="B" cx="166.8" cy="179.6" r="9.3"/><circle class="B" cx="190.6" cy="179.6" r="9.3"/><circle class="B" cx="214.4" cy="179.6" r="9.3"/><circle class="B" cx="238.2" cy="179.6" r="9.3"/><circle class="B" cx="262" cy="179.6" r="9.3"/><circle class="B" cx="285.8" cy="179.6" r="9.3"/><circle class="B" cx="309.6" cy="179.6" r="9.3"/><circle class="B" cx="333.4" cy="179.6" r="9.3"/><circle class="B" cx="357.2" cy="179.6" r="9.3"/><circle class="B" cx="381" cy="179.6" r="9.3"/><circle class="B" cx="404.8" cy="179.6" r="9.3"/><circle class="B" cx="428.6" cy="179.6" r="9.3"/><circle class="B" cx="452.4" cy="179.6" r="9.3"/><circle class="B" cx="476.2" cy="179.6" r="9.3"/><circle class="B" cx="500" cy="179.6" r="9.3"/><circle class="B" cx="523.8" cy="179.6" r="9.3"/><circle class="B" cx="547.6" cy="179.6" r="9.3"/><circle class="B" cx="571.4" cy="179.6" r="9.3"/><circle class="B" cx="47.8" cy="179.6" r="9.3"/><circle class="B" cx="595.2" cy="179.6" r="9.3"/><circle class="B" cx="619" cy="179.6" r="9.3"/><circle class="B" cx="642.8" cy="179.6" r="9.3"/><circle class="B" cx="23.3" cy="179.6" r="9.3"/><circle class="B" cx="71.6" cy="204" r="9.3"/><circle class="B" cx="95.4" cy="204" r="9.3"/><circle class="B" cx="119.2" cy="204" r="9.3"/><circle class="B" cx="143" cy="204" r="9.3"/><circle class="B" cx="166.8" cy="204" r="9.3"/><circle class="B" cx="190.6" cy="204" r="9.3"/><circle class="B" cx="214.4" cy="204" r="9.3"/><circle class="B" cx="238.2" cy="204" r="9.3"/><circle class="B" cx="262" cy="204" r="9.3"/><circle class="B" cx="285.8" cy="204" r="9.3"/><circle class="B" cx="309.6" cy="204" r="9.3"/><circle class="B" cx="333.4" cy="204" r="9.3"/><circle class="B" cx="357.2" cy="204" r="9.3"/><circle class="B" cx="381" cy="204" r="9.3"/><circle class="B" cx="404.8" cy="204" r="9.3"/><circle class="B" cx="428.6" cy="204" r="9.3"/><circle class="B" cx="452.4" cy="204" r="9.3"/><circle class="B" cx="476.2" cy="204" r="9.3"/><circle class="B" cx="500" cy="204" r="9.3"/><circle class="B" cx="523.8" cy="204" r="9.3"/><circle class="B" cx="547.6" cy="204" r="9.3"/><circle class="B" cx="571.4" cy="204" r="9.3"/><circle class="A" cx="47.8" cy="204" r="9.3"/><circle class="B" cx="595.2" cy="204" r="9.3"/><circle class="B" cx="619" cy="204" r="9.3"/><circle class="A" cx="642.8" cy="204" r="9.3"/><circle class="B" cx="23.3" cy="204" r="9.3"/><circle class="B" cx="71.6" cy="228.5" r="9.3"/><circle class="B" cx="95.4" cy="228.5" r="9.3"/><circle class="B" cx="119.2" cy="228.5" r="9.3"/><circle class="B" cx="143" cy="228.5" r="9.3"/><circle class="B" cx="166.8" cy="228.5" r="9.3"/><circle class="B" cx="190.6" cy="228.5" r="9.3"/><circle class="B" cx="214.4" cy="228.5" r="9.3"/><circle class="B" cx="238.2" cy="228.5" r="9.3"/><circle class="B" cx="262" cy="228.5" r="9.3"/><circle class="B" cx="285.8" cy="228.5" r="9.3"/><circle class="B" cx="309.6" cy="228.5" r="9.3"/><circle class="B" cx="333.4" cy="228.5" r="9.3"/><circle class="B" cx="357.2" cy="228.5" r="9.3"/><circle class="B" cx="381" cy="228.5" r="9.3"/><circle class="B" cx="404.8" cy="228.5" r="9.3"/><circle class="B" cx="428.6" cy="228.5" r="9.3"/><circle class="B" cx="452.4" cy="228.5" r="9.3"/><circle class="B" cx="476.2" cy="228.5" r="9.3"/><circle class="B" cx="500" cy="228.5" r="9.3"/><circle class="B" cx="523.8" cy="228.5" r="9.3"/><circle class="B" cx="547.6" cy="228.5" r="9.3"/><circle class="B" cx="571.4" cy="228.5" r="9.3"/><circle class="A" cx="47.8" cy="228.5" r="9.3"/><circle class="B" cx="595.2" cy="228.5" r="9.3"/><circle class="B" cx="619" cy="228.5" r="9.3"/><circle class="A" cx="642.8" cy="228.5" r="9.3"/><circle class="B" cx="23.3" cy="228.5" r="9.3"/><circle class="A" cx="71.6" cy="252.9" r="9.3"/><circle class="B" cx="95.4" cy="252.9" r="9.3"/><circle class="B" cx="119.2" cy="252.9" r="9.3"/><circle class="B" cx="143" cy="252.9" r="9.3"/><circle class="B" cx="166.8" cy="252.9" r="9.3"/><circle class="B" cx="190.6" cy="252.9" r="9.3"/><circle class="A" cx="214.4" cy="252.9" r="9.3"/><circle class="B" cx="238.2" cy="252.9" r="9.3"/><circle class="B" cx="262" cy="252.9" r="9.3"/><circle class="B" cx="285.8" cy="252.9" r="9.3"/><circle class="B" cx="309.6" cy="252.9" r="9.3"/><circle class="B" cx="333.4" cy="252.9" r="9.3"/><circle class="B" cx="357.2" cy="252.9" r="9.3"/><circle class="B" cx="381" cy="252.9" r="9.3"/><circle class="B" cx="404.8" cy="252.9" r="9.3"/><circle class="B" cx="428.6" cy="252.9" r="9.3"/><circle class="B" cx="452.4" cy="252.9" r="9.3"/><circle class="B" cx="476.2" cy="252.9" r="9.3"/><circle class="A" cx="500" cy="252.9" r="9.3"/><circle class="B" cx="523.8" cy="252.9" r="9.3"/><circle class="A" cx="547.6" cy="252.9" r="9.3"/><circle class="B" cx="571.4" cy="252.9" r="9.3"/><circle class="A" cx="47.8" cy="252.9" r="9.3"/><circle class="B" cx="595.2" cy="252.9" r="9.3"/><circle class="B" cx="619" cy="252.9" r="9.3"/><circle class="A" cx="642.8" cy="252.9" r="9.3"/><circle class="A" cx="23.3" cy="252.9" r="9.3"/><circle class="A" cx="71.6" cy="277.4" r="9.3"/><circle class="B" cx="95.4" cy="277.4" r="9.3"/><circle class="B" cx="119.2" cy="277.4" r="9.3"/><circle class="B" cx="143" cy="277.4" r="9.3"/><circle class="B" cx="166.8" cy="277.4" r="9.3"/><circle class="B" cx="190.6" cy="277.4" r="9.3"/><circle class="A" cx="214.4" cy="277.4" r="9.3"/><circle class="B" cx="238.2" cy="277.4" r="9.3"/><circle class="B" cx="262" cy="277.4" r="9.3"/><circle class="B" cx="285.8" cy="277.4" r="9.3"/><circle class="B" cx="309.6" cy="277.4" r="9.3"/><circle class="B" cx="333.4" cy="277.4" r="9.3"/><circle class="B" cx="357.2" cy="277.4" r="9.3"/><circle class="B" cx="381" cy="277.4" r="9.3"/><circle class="B" cx="404.8" cy="277.4" r="9.3"/><circle class="B" cx="428.6" cy="277.4" r="9.3"/><circle class="B" cx="452.4" cy="277.4" r="9.3"/><circle class="B" cx="476.2" cy="277.4" r="9.3"/><circle class="B" cx="500" cy="277.4" r="9.3"/><circle class="B" cx="523.8" cy="277.4" r="9.3"/><circle class="B" cx="547.6" cy="277.4" r="9.3"/><circle class="B" cx="571.4" cy="277.4" r="9.3"/><circle class="A" cx="47.8" cy="277.4" r="9.3"/><circle class="B" cx="595.2" cy="277.4" r="9.3"/><circle class="B" cx="619" cy="277.4" r="9.3"/><circle class="B" cx="642.8" cy="277.4" r="9.3"/><circle class="A" cx="23.3" cy="277.4" r="9.3"/><circle class="B" cx="666.5" cy="277.4" r="9.3"/><circle class="A" cx="690.3" cy="277.4" r="9.3"/><circle class="A" cx="714.1" cy="277.4" r="9.3"/><circle class="A" cx="737.9" cy="277.4" r="9.3"/><circle class="B" cx="761.8" cy="277.4" r="9.3"/><circle class="B" cx="785.6" cy="277.4" r="9.3"/><circle class="B" cx="809.4" cy="277.4" r="9.3"/><circle class="A" cx="833.2" cy="277.4" r="9.3"/><circle class="A" cx="857" cy="277.4" r="9.3"/><circle class="A" cx="880.8" cy="277.4" r="9.3"/><circle class="B" cx="666.5" cy="252.9" r="9.3"/><circle class="B" cx="690.3" cy="252.9" r="9.3"/><circle class="B" cx="714.1" cy="252.9" r="9.3"/><circle class="A" cx="737.9" cy="252.9" r="9.3"/><circle class="B" cx="761.8" cy="252.9" r="9.3"/><circle class="A" cx="785.6" cy="252.9" r="9.3"/><circle class="B" cx="809.4" cy="252.9" r="9.3"/><circle class="A" cx="833.2" cy="252.9" r="9.3"/><circle class="B" cx="857" cy="252.9" r="9.3"/><circle class="A" cx="880.8" cy="252.9" r="9.3"/><circle class="A" cx="904.6" cy="252.9" r="9.3"/><circle class="A" cx="928.4" cy="252.9" r="9.3"/><circle class="B" cx="690.4" cy="179.6" r="9.3"/><circle class="B" cx="690.4" cy="204" r="9.3"/><circle class="B" cx="690.4" cy="228.5" r="9.3"/><circle class="B" cx="714.9" cy="179.6" r="9.3"/><circle class="B" cx="714.9" cy="204" r="9.3"/><circle class="A" cx="714.9" cy="228.5" r="9.3"/><circle class="B" cx="714.9" cy="155.2" r="9.3"/><circle class="B" cx="809.4" cy="228.5" r="9.3"/><circle class="B" cx="833.2" cy="228.5" r="9.3"/><circle class="B" cx="857" cy="228.5" r="9.3"/><circle class="A" cx="880.8" cy="228.5" r="9.3"/><circle class="A" cx="904.6" cy="228.5" r="9.3"/><circle class="A" cx="928.4" cy="228.5" r="9.3"/><circle class="A" cx="952.8" cy="228.5" r="9.3"/><circle class="B" cx="857" cy="204" r="9.3"/><circle class="B" cx="880.8" cy="204" r="9.3"/><circle class="A" cx="904.6" cy="204" r="9.3"/><circle class="A" cx="928.4" cy="204" r="9.3"/><circle class="A" cx="952.8" cy="204" r="9.3"/><circle class="B" cx="881.4" cy="179.6" r="9.3"/><circle class="B" cx="905.2" cy="179.6" r="9.3"/><circle class="B" cx="929" cy="179.6" r="9.3"/><circle class="A" cx="952.8" cy="179.6" r="9.3"/><circle class="B" cx="977.2" cy="179.6" r="9.3"/><circle class="B" cx="929.6" cy="155.2" r="9.3"/><circle class="B" cx="953.4" cy="155.2" r="9.3"/><circle class="B" cx="977.2" cy="155.2" r="9.3"/><circle class="B" cx="1001.7" cy="155.2" r="9.3"/><circle class="B" cx="953.4" cy="130.7" r="9.3"/><circle class="B" cx="977.2" cy="130.7" r="9.3"/><circle class="B" cx="1001.7" cy="130.7" r="9.3"/><circle class="B" cx="977.2" cy="106.3" r="9.3"/><circle class="A" cx="71.6" cy="301.8" r="9.3"/><circle class="B" cx="95.4" cy="301.8" r="9.3"/><circle class="B" cx="119.2" cy="301.8" r="9.3"/><circle class="B" cx="143" cy="301.8" r="9.3"/><circle class="B" cx="166.8" cy="301.8" r="9.3"/><circle class="B" cx="190.6" cy="301.8" r="9.3"/><circle class="A" cx="214.4" cy="301.8" r="9.3"/><circle class="B" cx="238.2" cy="301.8" r="9.3"/><circle class="B" cx="262" cy="301.8" r="9.3"/><circle class="B" cx="285.8" cy="301.8" r="9.3"/><circle class="B" cx="309.6" cy="301.8" r="9.3"/><circle class="A" cx="333.4" cy="301.8" r="9.3"/><circle class="B" cx="357.2" cy="301.8" r="9.3"/><circle class="B" cx="381" cy="301.8" r="9.3"/><circle class="B" cx="404.8" cy="301.8" r="9.3"/><circle class="A" cx="428.6" cy="301.8" r="9.3"/><circle class="B" cx="452.4" cy="301.8" r="9.3"/><circle class="B" cx="476.2" cy="301.8" r="9.3"/><circle class="B" cx="500" cy="301.8" r="9.3"/><circle class="A" cx="523.8" cy="301.8" r="9.3"/><circle class="B" cx="547.6" cy="301.8" r="9.3"/><circle class="B" cx="571.4" cy="301.8" r="9.3"/><circle class="A" cx="47.8" cy="301.8" r="9.3"/><circle class="A" cx="595.2" cy="301.8" r="9.3"/><circle class="B" cx="619" cy="301.8" r="9.3"/><circle class="B" cx="642.8" cy="301.8" r="9.3"/><circle class="A" cx="23.3" cy="301.8" r="9.3"/><circle class="B" cx="666.5" cy="301.8" r="9.3"/><circle class="A" cx="690.3" cy="301.8" r="9.3"/><circle class="B" cx="714.1" cy="301.8" r="9.3"/><circle class="B" cx="737.9" cy="301.8" r="9.3"/><circle class="B" cx="761.8" cy="301.8" r="9.3"/><circle class="B" cx="785.6" cy="301.8" r="9.3"/><circle class="B" cx="809.4" cy="301.8" r="9.3"/><circle class="A" cx="833.2" cy="301.8" r="9.3"/><circle class="A" cx="857" cy="301.8" r="9.3"/><circle class="A" cx="71.6" cy="326.2" r="9.3"/><circle class="B" cx="95.4" cy="326.2" r="9.3"/><circle class="B" cx="119.2" cy="326.2" r="9.3"/><circle class="A" cx="143" cy="326.2" r="9.3"/><circle class="B" cx="166.8" cy="326.2" r="9.3"/><circle class="B" cx="190.6" cy="326.2" r="9.3"/><circle class="B" cx="214.4" cy="326.2" r="9.3"/><circle class="B" cx="238.2" cy="326.2" r="9.3"/><circle class="B" cx="262" cy="326.2" r="9.3"/><circle class="B" cx="285.8" cy="326.2" r="9.3"/><circle class="B" cx="309.6" cy="326.2" r="9.3"/><circle class="B" cx="333.4" cy="326.2" r="9.3"/><circle class="B" cx="357.2" cy="326.2" r="9.3"/><circle class="B" cx="381" cy="326.2" r="9.3"/><circle class="B" cx="404.8" cy="326.2" r="9.3"/><circle class="B" cx="428.6" cy="326.2" r="9.3"/><circle class="B" cx="452.4" cy="326.2" r="9.3"/><circle class="B" cx="476.2" cy="326.2" r="9.3"/><circle class="A" cx="500" cy="326.2" r="9.3"/><circle class="B" cx="523.8" cy="326.2" r="9.3"/><circle class="B" cx="547.6" cy="326.2" r="9.3"/><circle class="A" cx="571.4" cy="326.2" r="9.3"/><circle class="A" cx="47.8" cy="326.2" r="9.3"/><circle class="B" cx="595.2" cy="326.2" r="9.3"/><circle class="B" cx="619" cy="326.2" r="9.3"/><circle class="B" cx="642.8" cy="326.2" r="9.3"/><circle class="B" cx="23.3" cy="326.2" r="9.3"/><circle class="B" cx="666.5" cy="326.2" r="9.3"/><circle class="B" cx="690.3" cy="326.2" r="9.3"/><circle class="B" cx="714.1" cy="326.2" r="9.3"/><circle class="B" cx="737.9" cy="326.2" r="9.3"/><circle class="A" cx="761.8" cy="326.2" r="9.3"/><circle class="B" cx="785.6" cy="326.2" r="9.3"/><circle class="B" cx="809.4" cy="326.2" r="9.3"/><circle class="A" cx="833.2" cy="326.2" r="9.3"/><circle class="B" cx="71.6" cy="350.7" r="9.3"/><circle class="B" cx="95.4" cy="350.7" r="9.3"/><circle class="B" cx="119.2" cy="350.7" r="9.3"/><circle class="A" cx="143" cy="350.7" r="9.3"/><circle class="B" cx="166.8" cy="350.7" r="9.3"/><circle class="B" cx="190.6" cy="350.7" r="9.3"/><circle class="B" cx="214.4" cy="350.7" r="9.3"/><circle class="B" cx="238.2" cy="350.7" r="9.3"/><circle class="B" cx="262" cy="350.7" r="9.3"/><circle class="B" cx="285.8" cy="350.7" r="9.3"/><circle class="B" cx="309.6" cy="350.7" r="9.3"/><circle class="B" cx="333.4" cy="350.7" r="9.3"/><circle class="B" cx="357.2" cy="350.7" r="9.3"/><circle class="B" cx="381" cy="350.7" r="9.3"/><circle class="B" cx="404.8" cy="350.7" r="9.3"/><circle class="B" cx="428.6" cy="350.7" r="9.3"/><circle class="B" cx="452.4" cy="350.7" r="9.3"/><circle class="B" cx="476.2" cy="350.7" r="9.3"/><circle class="B" cx="500" cy="350.7" r="9.3"/><circle class="B" cx="523.8" cy="350.7" r="9.3"/><circle class="B" cx="547.6" cy="350.7" r="9.3"/><circle class="B" cx="571.4" cy="350.7" r="9.3"/><circle class="B" cx="47.8" cy="350.7" r="9.3"/><circle class="B" cx="595.2" cy="350.7" r="9.3"/><circle class="B" cx="619" cy="350.7" r="9.3"/><circle class="B" cx="642.8" cy="350.7" r="9.3"/><circle class="B" cx="666.5" cy="350.7" r="9.3"/><circle class="B" cx="690.3" cy="350.7" r="9.3"/><circle class="A" cx="714.1" cy="350.7" r="9.3"/><circle class="A" cx="737.9" cy="350.7" r="9.3"/><circle class="B" cx="761.8" cy="350.7" r="9.3"/><circle class="B" cx="785.6" cy="350.7" r="9.3"/><circle class="B" cx="809.4" cy="350.7" r="9.3"/><circle class="B" cx="833.2" cy="350.7" r="9.3"/><circle class="A" cx="96" cy="375.1" r="9.3"/><circle class="A" cx="119.8" cy="375.1" r="9.3"/><circle class="B" cx="143.6" cy="375.1" r="9.3"/><circle class="B" cx="167.4" cy="375.1" r="9.3"/><circle class="B" cx="191.2" cy="375.1" r="9.3"/><circle class="B" cx="215" cy="375.1" r="9.3"/><circle class="B" cx="238.8" cy="375.1" r="9.3"/><circle class="B" cx="262.6" cy="375.1" r="9.3"/><circle class="B" cx="286.4" cy="375.1" r="9.3"/><circle class="B" cx="310.2" cy="375.1" r="9.3"/><circle class="B" cx="334" cy="375.1" r="9.3"/><circle class="B" cx="357.8" cy="375.1" r="9.3"/><circle class="B" cx="381.6" cy="375.1" r="9.3"/><circle class="B" cx="405.4" cy="375.1" r="9.3"/><circle class="B" cx="429.2" cy="375.1" r="9.3"/><circle class="B" cx="453" cy="375.1" r="9.3"/><circle class="B" cx="476.8" cy="375.1" r="9.3"/><circle class="B" cx="500.6" cy="375.1" r="9.3"/><circle class="B" cx="524.4" cy="375.1" r="9.3"/><circle class="B" cx="548.2" cy="375.1" r="9.3"/><circle class="B" cx="572.1" cy="375.1" r="9.3"/><circle class="B" cx="595.9" cy="375.1" r="9.3"/><circle class="A" cx="72.2" cy="375.1" r="9.3"/><circle class="B" cx="619.7" cy="375.1" r="9.3"/><circle class="B" cx="643.5" cy="375.1" r="9.3"/><circle class="B" cx="667.3" cy="375.1" r="9.3"/><circle class="A" cx="691" cy="375.1" r="9.3"/><circle class="B" cx="714.8" cy="375.1" r="9.3"/><circle class="B" cx="738.6" cy="375.1" r="9.3"/><circle class="B" cx="762.4" cy="375.1" r="9.3"/><circle class="A" cx="786.2" cy="375.1" r="9.3"/><circle class="A" cx="810" cy="375.1" r="9.3"/><circle class="B" cx="833.8" cy="375.1" r="9.3"/><circle class="A" cx="857.6" cy="375.1" r="9.3"/><circle class="A" cx="47.8" cy="375.1" r="9.3"/><circle class="A" cx="96" cy="399.5" r="9.3"/><circle class="A" cx="119.8" cy="399.5" r="9.3"/><circle class="A" cx="143.6" cy="399.5" r="9.3"/><circle class="B" cx="167.4" cy="399.5" r="9.3"/><circle class="A" cx="191.2" cy="399.5" r="9.3"/><circle class="A" cx="215" cy="399.5" r="9.3"/><circle class="B" cx="238.8" cy="399.5" r="9.3"/><circle class="B" cx="262.6" cy="399.5" r="9.3"/><circle class="B" cx="286.4" cy="399.5" r="9.3"/><circle class="B" cx="310.2" cy="399.5" r="9.3"/><circle class="B" cx="334" cy="399.5" r="9.3"/><circle class="B" cx="357.8" cy="399.5" r="9.3"/><circle class="B" cx="381.6" cy="399.5" r="9.3"/><circle class="B" cx="405.4" cy="399.5" r="9.3"/><circle class="B" cx="429.2" cy="399.5" r="9.3"/><circle class="B" cx="453" cy="399.5" r="9.3"/><circle class="B" cx="476.8" cy="399.5" r="9.3"/><circle class="A" cx="500.6" cy="399.5" r="9.3"/><circle class="B" cx="524.4" cy="399.5" r="9.3"/><circle class="B" cx="548.2" cy="399.5" r="9.3"/><circle class="B" cx="572.1" cy="399.5" r="9.3"/><circle class="B" cx="595.9" cy="399.5" r="9.3"/><circle class="B" cx="619.7" cy="399.5" r="9.3"/><circle class="B" cx="643.5" cy="399.5" r="9.3"/><circle class="A" cx="667.3" cy="399.5" r="9.3"/><circle class="B" cx="691" cy="399.5" r="9.3"/><circle class="B" cx="714.8" cy="399.5" r="9.3"/><circle class="B" cx="738.6" cy="399.5" r="9.3"/><circle class="A" cx="762.4" cy="399.5" r="9.3"/><circle class="A" cx="786.2" cy="399.5" r="9.3"/><circle class="B" cx="810" cy="399.5" r="9.3"/><circle class="B" cx="833.8" cy="399.5" r="9.3"/><circle class="A" cx="96" cy="424" r="9.3"/><circle class="A" cx="119.8" cy="424" r="9.3"/><circle class="A" cx="143.6" cy="424" r="9.3"/><circle class="A" cx="167.4" cy="424" r="9.3"/><circle class="A" cx="191.2" cy="424" r="9.3"/><circle class="A" cx="215" cy="424" r="9.3"/><circle class="B" cx="238.8" cy="424" r="9.3"/><circle class="B" cx="262.6" cy="424" r="9.3"/><circle class="B" cx="286.4" cy="424" r="9.3"/><circle class="B" cx="310.2" cy="424" r="9.3"/><circle class="B" cx="334" cy="424" r="9.3"/><circle class="B" cx="357.8" cy="424" r="9.3"/><circle class="B" cx="381.6" cy="424" r="9.3"/><circle class="B" cx="405.4" cy="424" r="9.3"/><circle class="B" cx="429.2" cy="424" r="9.3"/><circle class="A" cx="453" cy="424" r="9.3"/><circle class="A" cx="476.8" cy="424" r="9.3"/><circle class="B" cx="500.6" cy="424" r="9.3"/><circle class="B" cx="524.4" cy="424" r="9.3"/><circle class="B" cx="548.2" cy="424" r="9.3"/><circle class="A" cx="572.1" cy="424" r="9.3"/><circle class="B" cx="595.9" cy="424" r="9.3"/><circle class="A" cx="619.7" cy="424" r="9.3"/><circle class="B" cx="643.5" cy="424" r="9.3"/><circle class="B" cx="667.3" cy="424" r="9.3"/><circle class="A" cx="691" cy="424" r="9.3"/><circle class="B" cx="714.8" cy="424" r="9.3"/><circle class="B" cx="738.6" cy="424" r="9.3"/><circle class="B" cx="762.4" cy="424" r="9.3"/><circle class="A" cx="786.2" cy="424" r="9.3"/><circle class="B" cx="810" cy="424" r="9.3"/><circle class="A" cx="167.4" cy="448.4" r="9.3"/><circle class="B" cx="191.2" cy="448.4" r="9.3"/><circle class="A" cx="215" cy="448.4" r="9.3"/><circle class="B" cx="238.8" cy="448.4" r="9.3"/><circle class="B" cx="262.6" cy="448.4" r="9.3"/><circle class="B" cx="286.4" cy="448.4" r="9.3"/><circle class="B" cx="310.2" cy="448.4" r="9.3"/><circle class="B" cx="334" cy="448.4" r="9.3"/><circle class="B" cx="357.8" cy="448.4" r="9.3"/><circle class="B" cx="381.6" cy="448.4" r="9.3"/><circle class="B" cx="405.4" cy="448.4" r="9.3"/><circle class="B" cx="429.2" cy="448.4" r="9.3"/><circle class="B" cx="453" cy="448.4" r="9.3"/><circle class="B" cx="476.8" cy="448.4" r="9.3"/><circle class="B" cx="500.6" cy="448.4" r="9.3"/><circle class="B" cx="524.4" cy="448.4" r="9.3"/><circle class="B" cx="548.2" cy="448.4" r="9.3"/><circle class="B" cx="572.1" cy="448.4" r="9.3"/><circle class="B" cx="595.9" cy="448.4" r="9.3"/><circle class="B" cx="619.7" cy="448.4" r="9.3"/><circle class="B" cx="643.5" cy="448.4" r="9.3"/><circle class="B" cx="667.3" cy="448.4" r="9.3"/><circle class="A" cx="691" cy="448.4" r="9.3"/><circle class="B" cx="714.8" cy="448.4" r="9.3"/><circle class="A" cx="738.6" cy="448.4" r="9.3"/><circle class="B" cx="762.4" cy="448.4" r="9.3"/><circle class="A" cx="786.2" cy="448.4" r="9.3"/><circle class="B" cx="167.4" cy="472.9" r="9.3"/><circle class="B" cx="191.2" cy="472.9" r="9.3"/><circle class="B" cx="215" cy="472.9" r="9.3"/><circle class="B" cx="238.8" cy="472.9" r="9.3"/><circle class="A" cx="286.4" cy="472.9" r="9.3"/><circle class="B" cx="310.2" cy="472.9" r="9.3"/><circle class="B" cx="334" cy="472.9" r="9.3"/><circle class="B" cx="357.8" cy="472.9" r="9.3"/><circle class="B" cx="381.6" cy="472.9" r="9.3"/><circle class="A" cx="405.4" cy="472.9" r="9.3"/><circle class="A" cx="429.2" cy="472.9" r="9.3"/><circle class="A" cx="453" cy="472.9" r="9.3"/><circle class="B" cx="476.8" cy="472.9" r="9.3"/><circle class="B" cx="500.6" cy="472.9" r="9.3"/><circle class="B" cx="524.4" cy="472.9" r="9.3"/><circle class="B" cx="548.2" cy="472.9" r="9.3"/><circle class="B" cx="572.1" cy="472.9" r="9.3"/><circle class="B" cx="595.9" cy="472.9" r="9.3"/><circle class="B" cx="619.7" cy="472.9" r="9.3"/><circle class="B" cx="643.5" cy="472.9" r="9.3"/><circle class="B" cx="667.3" cy="472.9" r="9.3"/><circle class="B" cx="691" cy="472.9" r="9.3"/><circle class="B" cx="714.8" cy="472.9" r="9.3"/><circle class="B" cx="738.6" cy="472.9" r="9.3"/><circle class="A" cx="762.4" cy="472.9" r="9.3"/><circle class="B" cx="310.2" cy="497.3" r="9.3"/><circle class="B" cx="334" cy="497.3" r="9.3"/><circle class="B" cx="357.8" cy="497.3" r="9.3"/><circle class="B" cx="381.6" cy="497.3" r="9.3"/><circle class="B" cx="405.4" cy="497.3" r="9.3"/><circle class="A" cx="429.2" cy="497.3" r="9.3"/><circle class="A" cx="453" cy="497.3" r="9.3"/><circle class="A" cx="476.8" cy="497.3" r="9.3"/><circle class="A" cx="500.6" cy="497.3" r="9.3"/><circle class="B" cx="524.4" cy="497.3" r="9.3"/><circle class="B" cx="548.2" cy="497.3" r="9.3"/><circle class="B" cx="572.1" cy="497.3" r="9.3"/><circle class="A" cx="595.9" cy="497.3" r="9.3"/><circle class="B" cx="619.7" cy="497.3" r="9.3"/><circle class="B" cx="643.5" cy="497.3" r="9.3"/><circle class="B" cx="667.3" cy="497.3" r="9.3"/><circle class="B" cx="691" cy="497.3" r="9.3"/><circle class="B" cx="714.8" cy="497.3" r="9.3"/><circle class="A" cx="738.6" cy="497.3" r="9.3"/><circle class="B" cx="310.2" cy="521.7" r="9.3"/><circle class="B" cx="334" cy="521.7" r="9.3"/><circle class="B" cx="381.6" cy="521.7" r="9.3"/><circle class="A" cx="405.4" cy="521.7" r="9.3"/><circle class="A" cx="429.2" cy="521.7" r="9.3"/><circle class="B" cx="453" cy="521.7" r="9.3"/><circle class="A" cx="476.8" cy="521.7" r="9.3"/><circle class="B" cx="500.6" cy="521.7" r="9.3"/><circle class="B" cx="524.4" cy="521.7" r="9.3"/><circle class="B" cx="548.2" cy="521.7" r="9.3"/><circle class="B" cx="572.1" cy="521.7" r="9.3"/><circle class="A" cx="595.9" cy="521.7" r="9.3"/><circle class="A" cx="714.8" cy="521.7" r="9.3"/><circle class="A" cx="738.6" cy="521.7" r="9.3"/><circle class="B" cx="381.6" cy="546.2" r="9.3"/><circle class="B" cx="405.4" cy="546.2" r="9.3"/><circle class="B" cx="429.2" cy="546.2" r="9.3"/><circle class="B" cx="453" cy="546.2" r="9.3"/><circle class="A" cx="476.8" cy="546.2" r="9.3"/><circle class="B" cx="428.6" cy="570.6" r="9.3"/><circle class="B" cx="452.4" cy="570.6" r="9.3"/><circle class="B" cx="452.4" cy="595.1" r="9.3"/><circle class="A" cx="738.6" cy="546.2" r="9.3"/><circle class="A" cx="738.6" cy="570.6" r="9.3"/><circle class="A" cx="763" cy="546.2" r="9.3"/><circle class="A" cx="763" cy="570.6" r="9.3"/><circle class="A" cx="763" cy="595.1" r="9.3"/></svg>